# xmcd
#
# Track frame offsets: 
#        150
#        29989
#        47662
#        71325
#        94708
#        111190
#        128661
#        151878
#        168100
#        182652
#        187959
#
# Disc length: 2742 seconds
#
# Revision: 0
# Processed by: cddbd v1.5.2PL0 Copyright (c) Steve Scherf et al.
# Submitted via: ExactAudioCopyFreeDBPlugin 1.0
#
DISCID=890ab40b
DTITLE=Gordon Blue - God bless the devil
DYEAR=2012
DGENRE=Blues
TTITLE0=Death come creepin
TTITLE1=Emily
TTITLE2=Dogcatcher
TTITLE3=Cold cold heart
TTITLE4=I´m gonna dig myself a hole
TTITLE5=Long time ago
TTITLE6=The devil in me
TTITLE7=Same for you
TTITLE8=J´ai mis les mains dans une eau sale
TTITLE9=Special1
TTITLE10=Special
EXTD=
EXTT0=
EXTT1=
EXTT2=
EXTT3=
EXTT4=
EXTT5=
EXTT6=
EXTT7=
EXTT8=
EXTT9=
EXTT10=
PLAYORDER=
